<?xml version="1.0" encoding="UTF-8" standalone="no"?>
<!DOCTYPE svg PUBLIC "-//W3C//DTD SVG 20010904//EN"
"http://www.w3.org/TR/2001/REC-SVG-20010904/DTD/svg10.dtd">
<!-- Created with Sodipodi ("http://www.sodipodi.com/") -->
<svg
   width="48pt"
   height="48pt"
   viewBox="0 0 256 256"
   overflow="visible"
   enable-background="new 0 0 256 256"
   xml:space="preserve"
   xmlns="http://www.w3.org/2000/svg"
   xmlns:xap="http://ns.adobe.com/xap/1.0/"
   xmlns:xapGImg="http://ns.adobe.com/xap/1.0/g/img/"
   xmlns:ns="http://ns.adobe.com/SaveForWeb/1.0/"
   xmlns:rdf="http://www.w3.org/1999/02/22-rdf-syntax-ns#"
   xmlns:xml="http://www.w3.org/XML/1998/namespace"
   xmlns:xapMM="http://ns.adobe.com/xap/1.0/mm/"
   xmlns:pdf="http://ns.adobe.com/pdf/1.3/"
   xmlns:dc="http://purl.org/dc/elements/1.1/"
   xmlns:a="http://ns.adobe.com/AdobeSVGViewerExtensions/3.0/"
   xmlns:x="adobe:ns:meta/"
   xmlns:sodipodi="http://sodipodi.sourceforge.net/DTD/sodipodi-0.dtd"
   xmlns:xlink="http://www.w3.org/1999/xlink"
   id="svg797"
   sodipodi:version="0.32"
   sodipodi:docname="/home/david/Documenti/Progetti/add2cvs/gnome-mime-application-vnd.ms-excel.svgz"
   sodipodi:docbase="/home/david/Documenti/Progetti/add2cvs/">
  <defs
     id="defs891" />
  <sodipodi:namedview
     id="base" />
  <metadata
     id="metadata798">
    <ns:sfw>
      <ns:slices>
        <ns:slice
           x="0"
           y="0"
           width="256"
           height="256"
           sliceID="124383562" />
      </ns:slices>
      <ns:sliceSourceBounds
         x="0"
         y="0"
         width="256"
         height="256"
         bottomLeftOrigin="true" />
      <ns:optimizationSettings>
        <ns:targetSettings
           fileFormat="PNG24Format"
           targetSettingsID="0">
          <ns:PNG24Format
             transparency="true"
             includeCaption="false"
             interlaced="false"
             noMatteColor="false"
             matteColor="#FFFFFF"
             filtered="false" />
        </ns:targetSettings>
      </ns:optimizationSettings>
    </ns:sfw>
    <xpacket>begin='﻿' id='W5M0MpCehiHzreSzNTczkc9d'    </xpacket>
    <x:xmpmeta
       x:xmptk="XMP toolkit 3.0-29, framework 1.6">
      <rdf:RDF>
        <rdf:Description
           rdf:about="uuid:fe3421c3-7953-4bda-b03a-58e4787ea1ae">
          <pdf:Producer>
Adobe PDF library 5.00</pdf:Producer>
        </rdf:Description>
        <rdf:Description
           rdf:about="uuid:fe3421c3-7953-4bda-b03a-58e4787ea1ae" />
        <rdf:Description
           rdf:about="uuid:fe3421c3-7953-4bda-b03a-58e4787ea1ae" />
        <rdf:Description
           rdf:about="uuid:fe3421c3-7953-4bda-b03a-58e4787ea1ae">
          <xap:CreateDate>
2004-01-26T11:58:28+02:00</xap:CreateDate>
          <xap:ModifyDate>
2004-03-28T20:43:12Z</xap:ModifyDate>
          <xap:CreatorTool>
Adobe Illustrator 10.0</xap:CreatorTool>
          <xap:MetadataDate>
2004-02-16T23:53:28+01:00</xap:MetadataDate>
          <xap:Thumbnails>
            <rdf:Alt>
              <rdf:li
                 rdf:parseType="Resource">
                <xapGImg:format>
JPEG</xapGImg:format>
                <xapGImg:width>
256</xapGImg:width>
                <xapGImg:height>
256</xapGImg:height>
                <xapGImg:image>
/9j/4AAQSkZJRgABAgEASABIAAD/7QAsUGhvdG9zaG9wIDMuMAA4QklNA+0AAAAAABAASAAAAAEA
AQBIAAAAAQAB/+4ADkFkb2JlAGTAAAAAAf/bAIQABgQEBAUEBgUFBgkGBQYJCwgGBggLDAoKCwoK
DBAMDAwMDAwQDA4PEA8ODBMTFBQTExwbGxscHx8fHx8fHx8fHwEHBwcNDA0YEBAYGhURFRofHx8f
Hx8fHx8fHx8fHx8fHx8fHx8fHx8fHx8fHx8fHx8fHx8fHx8fHx8fHx8fHx8f/8AAEQgBAAEAAwER
AAIRAQMRAf/EAaIAAAAHAQEBAQEAAAAAAAAAAAQFAwIGAQAHCAkKCwEAAgIDAQEBAQEAAAAAAAAA
AQACAwQFBgcICQoLEAACAQMDAgQCBgcDBAIGAnMBAgMRBAAFIRIxQVEGE2EicYEUMpGhBxWxQiPB
UtHhMxZi8CRygvElQzRTkqKyY3PCNUQnk6OzNhdUZHTD0uIIJoMJChgZhJRFRqS0VtNVKBry4/PE
1OT0ZXWFlaW1xdXl9WZ2hpamtsbW5vY3R1dnd4eXp7fH1+f3OEhYaHiImKi4yNjo+Ck5SVlpeYmZ
qbnJ2en5KjpKWmp6ipqqusra6voRAAICAQIDBQUEBQYECAMDbQEAAhEDBCESMUEFURNhIgZxgZEy
obHwFMHR4SNCFVJicvEzJDRDghaSUyWiY7LCB3PSNeJEgxdUkwgJChgZJjZFGidkdFU38qOzwygp
0+PzhJSktMTU5PRldYWVpbXF1eX1RlZmdoaWprbG1ub2R1dnd4eXp7fH1+f3OEhYaHiImKi4yNjo
+DlJWWl5iZmpucnZ6fkqOkpaanqKmqq6ytrq+v/aAAwDAQACEQMRAD8A9U4q7FXYq7FXYq7FXYq7
FXYq7FXYq7FXYq7FXYq7FXYq7FXYq7FXYq7FXYq7FXYq7FXYq7FXYq7FXYq7FXYq7FXYqlvmDzFo
3l7TJdT1e5W1tItuTbszHoiKN2Y+AxV4j5g/5ydvTcMnl/SYlgU0Se/LOzDxMcTIF/4M4qk//QzP
nv8A5YNL/wCRVx/2UYq7/oZnz3/ywaX/AMirj/soxV3/AEMz57/5YNL/AORVx/2UYq7/AKGZ89/8
sGl/8irj/soxV3/QzPnv/lg0v/kVcf8AZRirv+hmfPf/ACwaX/yKuP8AsoxV3/QzPnv/AJYNL/5F
XH/ZRirv+hmfPf8AywaX/wAirj/soxV3/QzPnv8A5YNL/wCRVx/2UYq7/oZnz3/ywaX/AMirj/so
xV3/AEMz57/5YNL/AORVx/2UYq7/AKGZ89/8sGl/8irj/soxV3/QzPnv/lg0v/kVcf8AZRirv+hm
fPf/ACwaX/yKuP8AsoxV3/QzPnv/AJYNL/5FXH/ZRirv+hmfPf8AywaX/wAirj/soxV3/QzPnv8A
5YNL/wCRVx/2UYq7/oZnz3/ywaX/AMirj/soxV3/AEMz57/5YNL/AORVx/2UYq7/AKGZ89/8sGl/
8irj/soxV3/QzPnv/lg0v/kVcf8AZRirv+hmfPf/ACwaX/yKuP8AsoxVFad/zk75oS4B1HSbG4t+
6W/qwP8A8E7zj/hcVeyeRfzJ8tec7Vn0yUx3kQBuLCaizJ25AAkMlf2l+mmKsqxV2KuxV2KuxV2K
vm/XDqf5ufmk+j287Q+XtJLqJF3VIY2CSzAHYvM9AvtTwOKvePLfk/y35bs0tdHsYrZVFGlCgyuf
GSQ/Ex+ZxVOK4q6oxVrkMVdyGKu5jFWvUGKu9RffFWvVX3xV3rL74q71l8DirXrp4HFXfWE8DirX
1hPA4q76yngcVd9Zj8D+GKtfWo/A/hirvrcfgfw/rirvrcfgfw/rirX1yLwb8P64q765F4N+H9cV
d9di8G/D+uKtfXovBvw/riqVa/5X8r+abR7TV7GO55CiyMoWZP8AKjkHxKR7HFXzB5n0XXfys8/R
NZXBJgIudOujsJYGJUpIB8ijj+oxV9VeWtfs/MGhWWsWf9xexLKErUoxHxI3up2OKplirsVdirsV
Q+oMy2Fyy/aWJyvzCnFXhP8AziwqvL5nmYcpQLIBz1oxuC2/uVGKvficVaxVrFWicVaJxVrFWsVa
JxVonFWsVaxVrFWicVaxVrFWicVaJxVrFWsVaJxVonFWsVaxVdCSJkp/MP14q8V/5ypRBJ5ZkCjm
wvVZu5CmAgfRyOKsn/5x3vJX8lwWzElQZmSvbjMR/wAbYq9XxV2KuxV2KofUv+Oddf8AGGT/AIic
VeE/84pn/lKP+jD/ALGcVe+nFWsVaJxVonFWsVaxVonFWicVaxVrFWsVaJxVrFWsVaJxVonFWsVa
xVonFWicVaxVrFWicVXQ/wB9H/rD9eKvFv8AnKw/8ov/ANH/AP2LYqn/APzjn/yisHyuP+T4xV6/
irsVdirsVQ+pf8c66/4wyf8AETirwf8A5xRNf8U/9GH/AGM4q9+PXFWC/nBJInlq2KMVP11BVTQ/
3Uvhm87AAOc3/MP3hhPkxrSfyw1rUtMtb9NVWNLqNZVRvUJAYVoaHNjqO2MeOZgYfSa6MRBF/wDK
n9d/6u8f3Sf1yg9uYv5n3J4C7/lT+u/9XeP7pP65E9t4/wCZ9y8DX/Kn9e/6vEf3Sf1yJ7Zx/wAz
7l4Hf8qe13/q8R/dJ/XIntjH/M+5eB3/ACp7Xv8Aq8R/dJ/XI/ytj/mp4Hf8qd17/q8R/dJ/XInt
WH81eFKvM35d6xoOkS6nNqazJEyKY05gnmwXuffLMGthklwiKDGlvlf8v9X8waSuow6ksCM7J6b8
yfh27HI6jVxxy4SFATb/AJU7r3/V4j+6T+uY57Qh/NZcLv8AlTmvf9XiP7pP65H8/H+avC1/ypzX
v+rxH90n9ciddHuXhd/ypzXv+rxH90n9cidZHuXhd/ypvXv+rxH90n9cidXHuWmv+VN69/1eI/uk
/rkTqY9y0htT/KjW7DTbu+fVkdLSGSdkAkBIjUsQKnvTAM4JqlpNPyjkkfRbwuxY/WdiTX/da+OV
5+aQzrKEtYq0TirROKrof76P/WH68VeK/wDOVxp/hb/o/wD+xbFWQf8AOOX/ACilv8rj/k+MVewY
q7FXYq7FUPqX/HOuv+MMn/ETirwb/nE81/xT/wBGH/Yzir349cVYH+cf/KM2v/Man/JqXN77P/35
/qH7wwnyZN5M/wCUT0n/AJhYv+IjNd2h/fz/AKxZR5JzmGl2KuxV2KuxV2KsR/Nb/lCrv/Xh/wCT
q5ndnf3w+LGXJS/KT/lDo/8AjPL+sYe0f734LHkzPMBk7FXYq7FXYq7FUq82f8otrP8AzA3P/Jls
lD6gpYH+UP8AxxL3/mJ/5lrlufmgM7yhLROKtE4q1iq6D+/j/wBYfrxV4r/zlgaf4W/6P/8AsWxV
kH/OOH/KJ2/yuP8Ak+MVew4q7FXYq7FUPqX/ABzrr/jDJ/xE4q8E/wCcTD/ylX/Rh/2M4q9/Y7nF
WCfnF/yjNt/zGp/yalze+z/9+f6h+8MJ8lLy5+Znlew0Gwsrh5hPbwJHIFjJHJRQ0Ncnq+yM88sp
CqJ71ExSZf8AK2vJ/wDvyf8A5FH+uYv8i6juHzTxh3/K2vJ/+/J/+RR/rg/kbP3D5rxhr/lbXk//
AH5P/wAij/XB/I+fy+a8Yd/ytvyf/vyf/kUf64P5JzeXzXjDv+Vt+T/9+T/8ij/XB/JWby+a8Qd/
ytvyd/vyf/kUf64P5LzeXzXiDH/Pf5heXNZ8t3Gn2Tym4kaMqHjKiiuGO/yGZGk0WTHkEpckGSn5
A8/+XdE8upY3zyrcLLI5CRlhRjtvg1mknOdjkoLJP+VueTv9+T/8ij/XMT8hk8mXE1/ytzyd/vyf
/kUf64PyOReJ3/K3PJ3+/J/+RR/rg/JZFt3/ACt3yd/vyf8A5FH+uD8pNbd/yt3yb/vyf/kUf65H
8rNbd/yt3yb/AL8n/wCRR/rg/LSW0Br35peU73Q9Rs4JJjPc2s0MQMRA5SRsq1NfE4Y4ZAhbQH5Q
/wDHEvf+Yn/mWuDPzUM7JyhLROKtYq1iq6A/v4/9Zf14q8U/5yzP/KK/9H//AGLYqyH/AJxv/wCU
St/lcf8AJ/FXsWKuxV2KuxVD6l/xzrr/AIwyf8ROKvAv+cSj/wApV/0Yf9jOKvoBupxVgn5w/wDK
M23/ADGp/wAmpc3vs/8A35/qH7wwnyRPlfyL5TvPLunXVzp6SXE1vG8shaQEsy1J2YDIa3tLPHNK
IlsJHuURFJp/yrryX/1a0/4OT/mrMX+VNR/P+5PCHf8AKuvJf/VrT/g5f+asH8p6j+d9y8Id/wAq
68l/9WtP+Dl/5qwfyln/AJ33Lwh3/KufJf8A1a0/4OX/AJqwfyjn/nfcvCGv+Vc+Sv8Aq1p/wcv/
ADVg/lDP/O+5PCHf8q58lf8AVrT/AIOX/mrH8/m/nfcvCGN/mH5M8s6Z5WubywsVguUeILIGckBp
AD9piOmZOi1WSeQCRsMSNlP8uPJ/lvVfLKXeoWKz3BlkUyFnBop2HwsBjrtTkhkqJ2TEMo/5Vx5K
/wCrWn/By/8ANWYf5zL3poO/5Vx5K/6taf8ABy/81YPzeTvWg7/lXHkn/q1p/wAHL/zVj+ayd607
/lXHkn/q1p/wcv8AzVg/M5O9ad/yrjyT/wBWtP8Ag5f+asH5ifetNf8AKt/JP/VrT/g5f+a8Hjz7
1pL/ADF5A8oWvl/U7m301I54LSeSJw8hKukbMp3bsRhjlkSN1pIvyi/44l5/zE/8y1w5+ahnROUJ
axVrFWicVXwf38f+sv68VeJf85an/lFf+j//ALFsVZF/zjb/AMojbfK5/wCT+KvY8VdirsVdiqH1
L/jnXX/GGT/iJxV4D/ziQa/4r/7d/wD2M4q+gW+0fnirA/zh/wCUatv+Y1P+TUub32f/AL8/1D94
YT5Mo8mf8onpP/MLF/xEZru0P7+f9Yso8k5zDS7FXYq7FXYq7FWI/mt/yhV3/rw/8nVzO7O/vh8W
MuSl+Un/ACh0f/GeX9Yw9o/3vwWPJmeYDJ2KuxV2KuxV2KpV5s/5RbWf+YG5/wCTLZKH1BSwH8o/
+OJef8xP/Mtctz80BnWUJaxVonFWicVXwf38f+uv68VeJf8AOW5p/hT/ALeH/YtirI/+ca/+UPtv
lc/8n8Vex4q7FXYq7FUPqX/HOuv+MMn/ABE4q+f/APnEY1/xX/27/wDsZxV9BN9o/PFWCfnB/wAo
1bf8xqf8mpc3vs//AH5/qH7wwnyY/o/m38xrbS7W3sdJeaziiVbeUWkzhkA+E8lND9GbDUaHRymT
KdSJ39QYglF/42/NP/qyP/0hXH9coPZ+i/n/AOyiniLv8bfmp/1ZH/6Qrj+uROg0X8//AGQXiLv8
bfmp/wBWR/8ApCuP65E6HR/z/wDZBeIu/wAbfmp/1ZH/AOkK4/rkTotJ/P8A9kF4i1/jb81f+rI/
/SFcf1yJ0Wl/n/7IJsu/xt+av/Vkf/pCuP65E6PS/wA//ZBbKU+aPM/n2/0aW21fTGtrB2QyTG1m
iAIYFfjc0FTluDT4IzuErPvCCSs8qeZfPWn6Qtto2mNdWQdmEotpZRyP2hyTbI6nBhlK5Gj71BKc
f43/ADV/6skn/SFcf1zGOm0/877Qysu/xv8Amr/1ZH/6Qrj+uR/L4P532hbLv8b/AJrf9WR/+kK4
/rkfy+H+d9oWy7/G/wCa3/Vkf/pCuP65E4MPf9q2Wv8AG/5rf9WOT/pCuP65E4cXf9q2Xf44/Nf/
AKscn/SDcf1yJxY+/wC1bKF1Tzj+Zlxpl5BeaO8VpLBIlxKbOdAsbIQ7ciaCi9ziMcAdito/8o/+
OLef8xP/ADLXKs/NIZ1lCWicVaJxVrFV9v8A70Rf66/rxV4j/wA5cmn+FP8At4f9i2Ksk/5xq/5Q
62+Vz/1EYq9kxV2KuxV2KofUv+Oddf8AGGT/AIicVfPv/OIZ/wCUs/7d/wD2M4q+g3PxH54qwT83
/wDlGrb/AJjU/wCTUub32f8A78/1D94YT5Mp8mf8onpP/MLF/wARGa7tD+/n/WLKPJOcw0uxV2Ku
xV2KuxViP5rf8oVd/wCvD/ydXM7s7++HxYy5KX5Sf8odH/xnl/WMPaP978FjyZnmAydirsVdirsV
diqVebP+UW1n/mBuf+TLZKH1BSwD8pP+OLef8xP/ADLXLc/NAZyTlCWicVaxVrFV9uf9Ii/11/Xi
rxD/AJy8P/KJ/wDbw/7FsVZL/wA40f8AKG2vyuf+ojFXsuKuxV2KuxVD6l/xzrr/AIwyf8ROKvnz
/nEE/wDKWf8Abv8A+xnFX0G/2j8zirBPzf8A+Uatv+Y1P+TUub32f/vz/UP3hhPkyryZ/wAonpP/
ADCxf8RGa7tD+/n/AFiyjyTnMNLsVdirsVdirsVYj+a3/KFXf+vD/wAnVzO7O/vh8WMuSl+Un/KH
R/8AGeX9Yw9o/wB78FjyZnmAydirsVdirsVdiqVebP8AlFtZ/wCYG5/5MtkofUFLz/8AKX/ji3n/
ADE/8y1y3PzQGck5QlrFWsVaJxVfb/70Rf66/rxV4h/zl8f+UT/7eH/YtirJf+cZ/wDlDLX5XP8A
1EYq9mxV2KuxV2KofUv+Oddf8YZP+InFXz1/zh+a/wCLf+3f/wBjWKvoR/tt8zirBfze/wCUbtv+
YxP+TUub32f/AL8/1D94YT5JDo/5X6zqGl2t9FqiRR3MSyJGQ9VDCtNjmw1HbOOEzEwsg+TEQRf/
ACqDXv8Aq8J90n9coPbmL+Z9yeAu/wCVP69/1eE+6T+uRPbeP+Z9y8Dv+VP69/1eE+6T+uRPbOP+
Z9y8DX/Kn9e/6vCfdJ/XIntjH/M+5eB3/Knte/6vCfdJ/XI/ytj/AJq8Dv8AlT2vf9XiP7pP65E9
qw/mp4Ep80flzq2iaNLqNxqKXEUbIpiAep5sFHU075bg10ck+ERpBis8qfl5quu6Qt/baittEzsg
iIetV7/CaZHU6yOOXCRagJx/yp3Xv+rxH90n9cxj2hD+ay4Xf8qd17/q8R/dJ/XI/n4/zV4Xf8qd
1/8A6vEf3Sf1yJ10e5eF3/Kndf8A+rwn3Sf1yJ1ke5eFr/lTmv8A/V5j+6T+uROrj3LTv+VOa/8A
9XiP7pP65E6mPctIXVPyo1ux0y8vZNWSSO1gkmeMCSrLGhYrue9MRnBNUtI78pf+OLef8xP/ADLX
Ks/NIZxlCWsVaJxVrFV9t/vRF/rr+vFXh/8AzmAaf4S/7eH/AGK4qyb/AJxl/wCULtPlc/8AURir
2fFXYq7FXYqh9S/4511/xhk/4icVfPH/ADh6a/4t/wC3d/2NYq+hX+23zOKsF/N7/lG7b/mMT/k1
Lm99n/78/wBQ/eGE+TK/Jn/KJ6T/AMwsX/ERmu7Q/v5/1iyjyTnMNLsVdirsVdirsVYj+a3/AChV
3/rw/wDJ1czuzv74fFjLkpflJ/yh0f8Axnl/WMPaP978FjyZBf8AmXQbAlbm9jV16op5sPmqcjlO
LR5Z/TEtWTU44cykF3+aOiREpa29xdP24qFU/eeX/C5mjsiYFzlGA8z+PvcU9pQuoiUilc/5n661
fqugOF7GRnao+hFyvw9BHaepx35GP6ynxtVL6cMvkf1IU/m35hhFZ/LjsAdyrSIKfTG2ZENJoJ7R
1OP/AE0T/vmo6vVR+rDL5S/Uuh/PXSkcLqGlXNse/pskhH0N6WZX+hyUxePJGQ/HdbT/AC1GJqcJ
R/HwZBpX5r+RNRYIuppayn/dd0DDT/ZsPT/4bMHP2Hqse/BxD+jv+37HLxdqYJ/xV79v2Jv5nlim
8pavLE6yRvYXJR1IZSDC24IzWRiRKjztzwQRYYB+U3/HFvP+Yn/mWuWZ+ahnGUJaJxVrFWsVX23+
9MX+uv68VeHf85hGn+Ev+3j/ANiuKso/5xj/AOUKtPlc/wDURir2fFXYq7FXYqh9S/4511/xhk/4
icVfO/8Azh0f+Uu/7d3/AGNYq+hZD8bfM4qwb83f+Ubtv+YxP+TUub32f/vz/UP3hhPk7y5+Znle
w0Gwsrh5hPbwJHIFjJHJRQ0Ncnq+yM88spCqJ71ExSZf8ra8n/78n/5FH+uYv8i6juHzTxh3/K2v
J/8Avyf/AJFH+uD+Rs/cPmvGGv8AlbXk/wD35P8A8ij/AFwfyPn8vmvGHf8AK2/J/wDvyf8A5FH+
uD+Sc3l814w7/lbfk/8A35P/AMij/XB/JWby+a8Qd/ytvyd/vyf/AJFH+uD+S83l814ggvNPmLTP
M3l2SxshMnrvGVkkj4iiMG2BNTWm2X6TRzx5OKVbONn1UY7Dcsejkl0nSl05rx4bVSzegp+Ni25L
Bafjm0hijKXEI2e91OfVTPM/Bj17q8a1FvCP9eX4j9w2zZ48BPMusnIlC6R5guodat3uJa27t6ci
7BQr7V2/lO+az2l7IjqdBkjEeuI4o++O/wBosfFzOxtX4GqjI8j6T7j+o7vSOGfPvE+pW7hjxLay
W1hmThNGsiHqrgMPuOW4tRPGeKEjE94NMJwjMVIAjzSTUPIvlm9B52SxOf24KxkfQvw/hnR6L217
T0/LKZjun6vtO/2uo1HYGjy84CJ/o7fdt9jzTVryby9ql3pnlzVLprWRGhu4uQMbFgVdCq/C9AaV
49c7DJ7YZtVgBy4sUZfzt+XlZ9PzL572gY6TOYaaciBz9/d3Gvcnn5ffmZBoKS2OpwM0M0nM3Ef2
lNAp5L4bdswh2hx7yHyczSdvjllHxH6v1fJ7JpWt6Xq1stzp9wk8TfyncexGZUZAiw9FjyxnHiib
CNwtjWKtYqvtj/pMX+uv68VeHf8AOYp/5RH/ALeP/YrirKP+cYv+UJtPldf9RGKvaMVdirsVdiqH
1L/jnXX/ABhk/wCInFXzr/zhwf8AlL/+3d/2NYq+hpPtt8zirBvzc/5Ru2/5jE/5NS5vfZ/+/P8A
UP3hhPkjvK/kXyneeXdOurnT0kuJreN5ZC0gJZlqTswGQ1vaWeOaURLYSPcoiKTT/lXXkv8A6taf
8HJ/zVmL/Kmo/n/cnhDv+VdeS/8Aq1p/wcv/ADVg/lPUfzvuXhDv+VdeS/8Aq1p/wcv/ADVg/lLP
/O+5eEO/5Vz5L/6taf8ABy/81YP5Rz/zvuXhDX/KufJX/VrT/g5f+asH8oZ/533J4Qx/U/LXlNbg
Q6bpsSmM1kuGZ2UU8AzFaZsMGXLVzl8HAz5rPDH5pbfX6QKYrPr0ac9T/q+AzOxYjLeXydbkyAbR
+bGLtmYksSSepPXNljDhSSi675mQaJJRdd8y4OPJ6v5U1IanoVtcE1lUelP4802JPz6/Tnzh7Vdm
/kdfkxgegnij/Vlv9m8fg+o9j63x9NGR+rkfeP18034Zz3E7O3cMeJbYJ+ZHnUaXCdJ09/8AcjMv
76ResMbD/ibdvAb+GbjsvReIeOX0D7f2PKe0fbfgR8HGf3kuZ/mj9Z/HR53p1j6KerIP3zDp/KP6
5drtZ4h4Y/SPtfO4hVuLaGYfGu/Zh1zHwameM+ktnCCoafqWs+XrwXmnTsgBHICvFh4Ov8c6DRdo
iR22l3Nun1GTTy4oH9Xxe2eRvzF0/wAxQiCYi31FAOcROze650OHMJjzey0OvhqI2NpDmGYZc5zR
OKqlt/vTF/rr+vFXhn/OY5/5RD/t4/8AYrirKf8AnGD/AJQez+V1/wBROKvacVdirsVdiqH1L/jn
XX/GGT/iJxV85/8AOGxr/i//ALd3/Y1ir6Ik/vG+ZxVgv5uf8o3bf8xif8mpc3vs/wD35/qH7wwn
yZb5M/5RPSf+YWL/AIiM13aH9/P+sWUeSc5hpdirsVdiqU69fvFGtrCf3032iOoXp+OZelxWeI8g
4upyUOEcyxDVJgiG2iPwj+8b+Zv6DNthjfqLrMsq2DHrrvmxg4kkouu+ZcGiSUXXfMuDRJKLrvmX
Bx5Mo/K7VhFqdxpcjfBdL6sIP+/Ix8QHzTf6M81/4J3ZXHp4aqI3xnhl/Vly+Utv856b2W1nDkli
PKW494/Z9z03hniPE9zbF/PvnG38t6dSMq+p3IItYTvQdDI4/lX8T9ObHs7RHPPf6Bz/AFOm7Z7W
Gkx7b5Jch+k/jd49p9tPczPqN6zSTSsXDOalmJqXObrXaoRHhQ5Dn+p8vyZJTkZSNyPNMWzUhQpt
kg2BTIU7MKr3HtkgabAgbiO50i7h1GxkKpy5ROOxHVT/AJ/wzotDrCa/nfeyjKWGYnD8eT3fyB5x
i8xaUpc0vYhSZfGm1f6502LIJxsPa6TUxzYxMfgspyxyVS1/3pi/11/Xirwv/nMk0/wh/wBvH/sV
xVlX/OL/APyg1n8rr/qJxV7VirsVdirsVQ+pf8c66/4wyf8AETir5y/5w0Nf8Yf9u7/saxV9ESf3
jfM/rxVg35t/8o5bf8xif8mpM3vs/wD35/qH7wwnySTR/Nv5jW2l2tvY6S81nFEq28otJnDIB8J5
KaH6M2Go0OjlMmU6kTv6gxBKL/xt+af/AFZH/wCkK4/rlB7P0X8//ZRTxF3+NvzU/wCrI/8A0hXH
9cidBov5/wDsgvEXf42/NT/qyP8A9IVx/XInQ6P+f/sgvEXf42/NT/qyP/0hXH9cidFpP5/+yC8R
ecX35r+fNU1ea506RQkYp6cUKOCo+Hl8YZhX2Ocdq+2PClQkI472vq8bq+15DIZWIjoor+aXmSAh
dRsI27VKyQsT71LD8MytP7RSP82Xu/Ba4dpE9xRMf5n6ZN/vRaTQk/yFZB+PA/hm3w+0eL+KMh7t
/wBTb+dieYVf8W6Bcj4LoIf5ZFZPxIp+ObfB23pZfx177C+PA9VklzbzAmGVJR4owb9WbzT58eT6
JCXuNsSQUsuu+bCDRJCWeoy6bqdtfxfbtpFkA6VAO6/SNsr7Q0ENZpsmCf05Ike7uPwO66fOcOSO
Qc4m3tev+bNK0by+NZlcSRTIrWcQIDTM68kVfo3J7DPlSHZ2U6iWAipwkRLyo0X0vV9p48OHxSbB
Hp875PDDNqHmLVZtW1NufNq0/ZoOiKOyrnS58sdNjGLHz/G/vfMNbrJ5shnM+o/YmhzSOKFNskGw
KbZINgU2yQbAr2caXXPT5fsXXwxk/sy/sH6T8J+ftmTp5ESofD3/AI2b8Y4vSeqn5C1y40LzIsZJ
CliGQ7Vp1H+yWv4Z1nZ+e67pOd2LnOPKcZ5S+8PoyORJI1kQ8kcBlYdwRUZt3q1a1/3qh/11/Xir
wv8A5zLNP8H/APbx/wCxXFWVf84u/wDKC2fyuv8AqJxV7XirsVdirsVQ+pf8c66/4wyf8ROKvnD/
AJwxNf8AGH/bt/7GsVfRMp/eN8z+vFWDfm1/yjlt/wAxif8AJqTN77P/AN+f6h+8MJ8mXeTP+UT0
n/mFi/4iM13aH9/P+sWUeSc5hpdirsVSTzvqLab5P1q9RuMkFlO0TeEhjIT/AIYjK8sqiT5OPq58
OKR/ol81eQ4ALO6uO7yCOv8AqLX/AI3zz3t3Jc4x7hfz/sfKu05eoDyZK4BFCKjwzSAuvCAuNH0u
b+8tYyfEKFP3ihzKx6zLHlIuTDPMciUtuPKWkv8AYEkP+q1R/wANyzNx9r5hzo/D9Tkw1k+u6XTe
TWU1gut+wdafiD/DM3H233x+RciOs7whn0fzHB/dyeqo7LJUfc9M3el9qskPpyzj77P6w5EdVEoS
ZtZir68DU7sUNPvXbOj0ntzqB/FCfvH6qbBOJ6q8U2q669rb3UztZ6enpxKfsxoWLcV9ye/h8hnN
dsdoQOWecRjGeU3Q76Av9Pv97bn1MzGMZGxEUGRJFHFGscahUUUVRnIymZGzzcEFa2IbAptkg2BT
bJBsCm2SDYFnIqwZTRgag+4yQbIqXmbja+blnjHEStDc06D96BIR/wANnSaOVH/Ov50f0t8jwaiM
h3gvf/KNy0/l+1LbmMGP/gTQfhnTPap7an/Sof8AXX9YxV4V/wA5nGn+D/8At5f9iuKsr/5xc/5Q
Sy+V1/1E4q9sxV2KuxV2KofUv+Oddf8AGGT/AIicVfN//OF5r/jH/t2/9jWKvomX+8f5n9eKsG/N
r/lHLb/mMT/k1Jm99n/78/1D94YT5Mv8mf8AKJ6T/wAwsX/ERmu7Q/v5/wBYso8k5zDS7FXYqxT8
1v8AyXWvf8wp/wCJDKdR/dlw+0P7iXufP3kJq6RMPC4b/iCZ5522P3oP9H9JfLe1I+sHyZE2acOA
FNsIbAptkg2BTbJBsCm2SDYFNskGwKZAFffrkm0KbZINgU2yQbAptkg2BTbJBsCm2SDYFM75INgU
vPrcPMyQdTbxW8TfNI1B/HOjwRo/L7g3aj+9rup7v5GP+4Ff+MjfqGdO9syW1/3qh/11/WMVeFf8
5oGn+Dv+3l/2K4qyz/nFr/lA7L5XX/UScVe2Yq7FXYq7FUPqX/HOuv8AjDJ/xE4q+bf+cLTX/GP/
AG7f+xrFX0VL/ev/AKx/XiqQecPLj+YNNis0nFuY5lm5leVeKMtKAj+fM/s7WjT5DIi7FfcxkLYf
/wAqhuf+rmn/ACKP/NWbk+0Mf5n2/sY+G1/yqK5/6uaf8ij/AM1ZE+0Ef5n2/sXga/5VFc/9XNP+
RR/5qyJ7eH8z7f2LwO/5VFcf9XNP+RR/5qyJ7cH8z7f2LwJR5t/K66svLOp3gv1l+rW8kxjERBIj
HI78j2GYPaHaoyYJx4asd7i67H+5l7mCeQpgNPmQnrMa/Si0/VnlvbGHiFjmHzvtHFxRscwyls5w
OkCm2ENgU2yQbAptkg2BTbJBsCm2SDYFNskGwKbZINoU2yQbAptkg2BTbJBsCm2SDYEw8v2cU1/9
YuNrKxU3N03bim4X5sdsy9Ji4p+Q3crTxBNn6Y7liGsXkmo68bh/7y5l5keHN9hnQQjRAcfFI5Ml
/wA6T6N8jAjQUr3kYj7hnQvfMktf96of9df1jFXhP/OaRp/g7/t5f9iuKst/5xY/5QKx+V1/1EnF
XtuKuxV2KuxVD6l/xzrr/jDJ/wAROKvmv/nCs/8AKZf9u3/sbxV9Fyn96/8ArH9eKrCcVaxVrFWi
cVaJxVD39nDe2NxZTbw3UTwyD/JkUqfwOCQsUxnESBB6vl3y+s+ka9f6JefDPG7RkHb95CSDT5jf
OV1eMj4PBanEYkg8wzOGUunxdelfHOX1elMDxD6fued1OmMDxD6W2zCDjhTbJBsCm2SDYFNskGwK
bZINgU2yQbAptkg2hTbJBsCm2SDYFNskGwL7Szuby5S3tozJM5oqj9Z8AMsxwMjQ5t2OBkaCr5j1
G1s7L9A6dIJVDB9Rul6Syr0Rf8hM6LTacY40nVZhGPhx+J72K+XrZtR8xwhBySJvU/4D7P3tTM7T
R4sg8nM7J0/Flj5bvpny9a/VtIt4+/Gv39PwzdPYptaf71w/8ZF/WMVeEf8AOah/5Q3/ALeX/Ypi
rLv+cV/+UBsfldf9RRxV7dirsVdirsVQ+pf8c66/4wyf8ROKvmn/AJwoNf8AGX/bt/7G8VfRkx/e
v/rH9eKrMVaxVonFWicVaxVrFXiP56+TLi3u4/OOmKRQomohRurr8Mc3yOyN9Hjmr1+C/V83Qdr6
T/KD4/rY/oOux31qJo6cxRbiA9j+ungc5+cOHY7h5iUeE0dwncYWcVtyXPeI/wB4PoH2vmPpAzVa
js3rj38uv7XX5dBe+Pfy6/tUjmrIINFwapTbCGYU2yQbAptkg2BTbJBsCm2SDaFNskGwKbZINgRt
lol1dRm4kK2tiu8l3MeKAf5NftH2GZmn0k8nLYd7lYsBkLO0e8qGpeYrS0tn0/QgyRyDjdag4pNM
O6r/ACJ+Ob3Bp44hQ596MuqERw4/iep/YwrUrwRr6SH943X2GXSLRhx2b6PSvyp8nSqFuLhCssxD
PX9lR0H4/f8ALNtpMPBGzzL2vZuk8KFn6pPaAAoCgUAFAPYZluxVbQ/6XD/xkX9YxV4P/wA5rmn+
Df8At5f9imKsv/5xV/8AJf2Pyu/+oo4q9vxV2KuxV2KofUv+Oddf8YZP+InFXzR/zhMa/wCM/wDt
2/8AY3ir6Nm/vX/1j+vFVPFWicVaJxVrFWsVaJxVSubeC5t5Le4jWWCZTHLE4BVkYUZWB6gjARex
QQCKL53/ADC/LjVfJeoNregq82huauN3MFT/AHcvcx/yt9+9CdLq9Hw7j6fueZ7Q7N4NxvD7kFpH
mKy1FQFb0robtCTvXxU981EsZi6GeMxT5NVc7XUYuB/OTxk/4Mdf9kDkMkIZPrF/f82EjGf1ji+/
5/rVVk0yb7NwYG/lnUkf8HHyr/wIzCn2XA/RKvf+sfqaDo4H6ZV7/wBY/UuGmzyf3DxTj/iuWNj/
AMDXl+GY8uzMw5AS9xDH8jk6UfcQtfRtWH/HnMa+EbH9Qys6LMP4JfIp/KZR/DL5KZ0bVyaCyn38
Y3H8MRpM38yXyLIaXL/Nl8i2fL+rAcpIRCvUtK6RgD/ZkZfHs/Of4T8dm8aPL1Fe/ZSaw0uDe91W
Bf8AItw1w3y+EBR9+ZUOypfxSA+1sGCMfqkPhuoPr+jWf/HOsDcSjpcXpDAH2iX4fvOZ+LRYodOI
+f6mXjY4fTGz3y/UkmqavqOpS+peztKR9lTsqj/JUbDMy2jLmlM3I2x+/wBWjjrHB8cp2qNwP6nA
ZM8WnJ3LKvIP5fXt7dR3+oxtyLcoYW+0T15N/ntmx0ukr1Seq7P7O4anMe4PetJ0yLT7YRIBzIHN
h026AewzZO7RpOKqtp/vXB/xkX/iQxV4N/zmyaf4M/7eX/YpirL/APnFT/yX1h8rv/qKOKvcMVdi
rsVdiqH1L/jnXX/GGT/iJxV8zf8AOEh/5TP/ALdn/Y3ir6Om/vn/ANY/rxVTJxVonFWsVaxVonFW
icVaxVZIiSIyOoZGBVlYVBB2IIOKkPIvPP5D2V7JJqPlaRbC7J5tYOSIGbr+7YVMZ9vs/wCrmvz6
AHeOzqNT2XGW8Nj3dHl95eebfLNz9S16xkXiaKZhQmndJRVXH35p8umMTuKef1GhMDuOFGWvmrSL
gANIYHP7MgoP+CFRlBgQ4UsEgmCTQyryikWRfFSGH4YtJBHNv1ZU+w7L32JG+SBUEhqS7u2HxTSN
TpVif45PiKTOR6oZySSSak9ThYIae5tof72VU/1iBkmQiTyCV3XmGySoiBmb2+FfvP8ATDbdHTSP
PZZY6b5m8xPws4GFudi+6Rge7Hrl2LBPJyGzstL2bKf0j4l6f5J/KKG1ZLq6AuLgb+s4pGp/yB3O
bXBpIw35l6PS9nwxbneT1bT9NtrGLhEvxUoznqf6DMtz0UTirWKqtn/vXB/xkX/iQxV4L/zm2f8A
lDP+3n/2KYqzD/nFL/yXth8rv/qKOKvccVdirsVdiqH1L/jnXX/GGT/iJxV8y/8AOER/5TT/ALdn
/Y3ir6OnP75/9Y/rxVTJxVrFWsVaJxVonFWsVaxVonFWsVQ19p9jf27W99bx3MD/AGopVDqfoOAg
HYolEEUXnuvfkP5N1Bmkslk06VqmkLVSv+q3IAfIZiT0OOXk4OTs3FLkK9zB9R/5x512By+n6jHM
B9nmpQj6VJP/AAuY0uzT0Lhz7IPSSTT/AJT/AJk2posnMD+SaUD/AIdUyk9n5PJxpdjz7olQP5ef
mRuCfn+/GD8hk8mH8jz7gvh/Kjz5dbTToo7h5ZHP3KrZIdn5PJsj2PP+iPx7k4078hdSkIN5dvQ/
sxRcf+HkI/Vl8ezu8uVDsgfxS+TNdE/JXQLEq8sCyyD9u4Pqt/wIomZWPSY49HOxaHFDpfvZvZeX
9NtFULGHK9KgcR8lG2ZLlpl7DYDoMVaJxVrFWsVVbP8A3sg/4yL/AMSGKvBf+c3T/wAoX/28/wDs
UxVmP/OKH/kvLD5Xf/UUcVe44q7FXYq7FUPqX/HOuv8AjDJ/xE4q+Y/+cHzX/Gn/AG7P+xvFX0fO
f30n+sf14qp4q1irROKtE4q1irWKtE4q1irWKtYq0TirWKtYq1irROKtYq1irWKtE4q1irWKtYqq
2Z/0yD/jIn/EhirwT/nOA0/wX/28/wDsUxVmX/OJ/wD5LvT/AJXf/UUcVe5Yq7FXYq7FUPqX/HOu
v+MMn/ETir5g/wCcIJFSfzpbueM5GnMIzs1EN0G29iwrir6RuKiaSv8AMf14qp4q0TirROKtYq1i
rROKtYq1irWKtE4q1irWKtYq0TirWKtYq1irROKtYq1irWKtE4qrWIJvIABU81P3GuKvAP8AnOGa
My+TIgwMiLqTsncKxtQp+nicVZt/zieGH5dafUEHjdnfwN0SMVe5Yq7FXYq7FVskayRtG32XBVvk
RTFXxjrN7rf5Efnjca1FbNP5e1ZpDLAtFWW2mcPLGldg8MlGT2p2JxV9U+U/PHknzvp8d/5f1SG8
DrV4UcLcRnussJ+NCPcfLbFU8/R0X8zfhirv0bF/M34Yq1+jIv52/DFXfoyL+dvwxV36Lh/nb8MV
a/RUP87fhirv0VD/ADt+H9MVa/RMP87fhirv0TD/ADt+GKu/REH87fh/TFWv0PB/O34f0xV36Hg/
nb8P6Yq79DQfzt+H9MVa/QsH87fh/TFXfoWD/fj/AIf0xVr9CW/+/H/D+mKu/Qdv/vx/w/pirX6D
t/8Afj/h/TFXfoK3/wB+P+H9MVd+grf/AH4/4f0xVr9A2/8Avx/w/pirv0Bbf78f8P6Yqk3mfzh5
E8iWEuoa9qcNpxUlIpHDXEngsUK/G5PsPntir4i/MXztr35wfmQtxa27Rxy8bTSbImvo2yEtykI2
qas7n6OgGKvsf8nvLkehaFbWMA/c2lukQYihYmnxH3bhU/PFXoWKuxV2KuxV2KsT/Mb8t/L/AJ60
OTTNViUvSsE9KsjjoR3+7FXyP5v/AOcW/Nuk3rpYTLLASfTMwYrx9pIw1fpQYqx3/oXzz942v/BT
/wDVLFXf9C+efvG1/wCCn/6pYq7/AKF88/eNr/wU/wD1SxV3/Qvnn7xtf+Cn/wCqWKu/6F88/eNr
/wAFP/1SxV3/AEL55+8bX/gp/wDqlirv+hfPP3ja/wDBT/8AVLFXf9C+efvG1/4Kf/qlirv+hfPP
3ja/8FP/ANUsVd/0L55+8bX/AIKf/qlirv8AoXzz942v/BT/APVLFXf9C+efvG1/4Kf/AKpYq7/o
Xzz942v/AAU//VLFXf8AQvnn7xtf+Cn/AOqWKu/6F88/eNr/AMFP/wBUsVd/0L55+8bX/gp/+qWK
u/6F88/eNr/wU/8A1SxV3/Qvnn7xtf8Agp/+qWKu/wChfPP3ja/8FP8A9UsVd/0L55+8bX/gp/8A
qlirv+hfPP3ja/8ABT/9UsVd/wBC+efvG1/4Kf8A6pYqi9M/5xz85XFwEu54IIu7xiWRv+BZY/14
q96/Kz8k9M8uD/RYTPeyAevdS0LkdaMQKIn+SOvfFXu+m2EdjarCm56u3ix74qisVdirsVdirsVd
iq2SKOVSkiB0PVWAI/HFUKdG0sn/AHmT7sVd+htL/wCWZPxxV36G0v8A5Zk/HFXfobS/+WZPxxV3
6G0v/lmT8cVd+htL/wCWZPxxV36G0v8A5Zk/HFXfobS/+WZPxxV36G0v/lmT8cVd+htL/wCWZPxx
V36G0v8A5Zk/HFXfobS/+WZPxxV36G0v/lmT8cVd+htL/wCWZPxxV36G0v8A5Zk/HFXfobS/+WZP
xxV36G0v/lmT8cVd+htL/wCWZPxxV36G0v8A5Zk/HFXfobS/+WZPxxV36G0v/lmT8cVd+htL/wCW
ZPxxVw0bSwf95k+7FUVHFHEoSNAiDoqgAfhiq7FXYq7FX//Z</xapGImg:image>
              </rdf:li>
            </rdf:Alt>
          </xap:Thumbnails>
        </rdf:Description>
        <rdf:Description
           rdf:about="uuid:fe3421c3-7953-4bda-b03a-58e4787ea1ae">
          <xapMM:DocumentID>
uuid:94681739-0e99-4db0-81bb-faf86c4c081a</xapMM:DocumentID>
        </rdf:Description>
        <rdf:Description
           rdf:about="uuid:fe3421c3-7953-4bda-b03a-58e4787ea1ae">
          <dc:format>
image/svg+xml</dc:format>
          <dc:title>
            <rdf:Alt>
              <rdf:li
                 xml:lang="x-default">
mime.ai</rdf:li>
            </rdf:Alt>
          </dc:title>
        </rdf:Description>
      </rdf:RDF>
    </x:xmpmeta>
    <xpacket>end='w'    </xpacket>
  </metadata>
  <g
     id="Layer_1">
    <path
       opacity="0.2"
       d="M44,15.5c-9.374,0-17,7.626-17,17v200c0,9.374,7.626,17,17,17h176c9.375,0,17-7.626,17-17v-200     c0-9.374-7.625-17-17-17H44z"
       id="path800" />
    <path
       opacity="0.2"
       d="M42,13.5c-9.374,0-17,7.626-17,17v200c0,9.374,7.626,17,17,17h176c9.375,0,17-7.626,17-17v-200     c0-9.374-7.625-17-17-17H42z"
       id="path801" />
    <path
       opacity="0.2"
       d="M40,12.5c-9.374,0-17,7.626-17,17v200c0,9.374,7.626,17,17,17h176c9.375,0,17-7.626,17-17v-200     c0-9.374-7.625-17-17-17H40z"
       id="path802" />
    <linearGradient
       id="XMLID_12_"
       gradientUnits="userSpaceOnUse"
       x1="128.9995"
       y1="11"
       x2="128.9995"
       y2="245.0005">
      <stop
         offset="0"
         style="stop-color:#494949"
         id="stop804" />
      <stop
         offset="1"
         style="stop-color:#000000"
         id="stop805" />
      <a:midPointStop
         offset="0"
         style="stop-color:#494949"
         id="midPointStop806" />
      <a:midPointStop
         offset="0.5"
         style="stop-color:#494949"
         id="midPointStop807" />
      <a:midPointStop
         offset="1"
         style="stop-color:#000000"
         id="midPointStop808" />
    </linearGradient>
    <path
       fill="url(#XMLID_12_)"
       d="M41,11c-9.374,0-17,7.626-17,17v200c0,9.374,7.626,17,17,17h176c9.375,0,17-7.626,17-17V28     c0-9.374-7.625-17-17-17H41z"
       id="path809" />
    <path
       fill="#FFFFFF"
       d="M28,228c0,6.627,5.373,12,12,12h176c6.627,0,12-5.373,12-12V28c0-6.627-5.373-12-12-12H40     c-6.627,0-12,5.373-12,12V228z"
       id="path810" />
    <linearGradient
       id="XMLID_13_"
       gradientUnits="userSpaceOnUse"
       x1="29.0532"
       y1="29.0532"
       x2="226.9471"
       y2="226.9471">
      <stop
         offset="0"
         style="stop-color:#FFFFFF"
         id="stop812" />
      <stop
         offset="1"
         style="stop-color:#DADADA"
         id="stop813" />
      <a:midPointStop
         offset="0"
         style="stop-color:#FFFFFF"
         id="midPointStop814" />
      <a:midPointStop
         offset="0.5"
         style="stop-color:#FFFFFF"
         id="midPointStop815" />
      <a:midPointStop
         offset="1"
         style="stop-color:#DADADA"
         id="midPointStop816" />
    </linearGradient>
    <path
       fill="url(#XMLID_13_)"
       d="M40,21c-3.86,0-7,3.14-7,7v200c0,3.859,3.14,7,7,7h176c3.859,0,7-3.141,7-7V28     c0-3.86-3.141-7-7-7H40z"
       id="path817" />
    <rect
       x="47.284"
       y="42.249"
       opacity="0.99"
       fill="#FFFFFF"
       width="129.697"
       height="126.96"
       id="rect818" />
    <linearGradient
       id="XMLID_14_"
       gradientUnits="userSpaceOnUse"
       x1="45.1899"
       y1="106.2764"
       x2="179.0742"
       y2="106.2764">
      <stop
         offset="0"
         style="stop-color:#7C74FF"
         id="stop820" />
      <stop
         offset="1"
         style="stop-color:#7D7D99"
         id="stop821" />
      <a:midPointStop
         offset="0"
         style="stop-color:#7C74FF"
         id="midPointStop822" />
      <a:midPointStop
         offset="0.5"
         style="stop-color:#7C74FF"
         id="midPointStop823" />
      <a:midPointStop
         offset="1"
         style="stop-color:#7D7D99"
         id="midPointStop824" />
    </linearGradient>
    <path
       fill="url(#XMLID_14_)"
       d="M114.464,40.334h-4.663H45.19v21.314v3.997v17.318v3.996v17.318v3.996v17.319v3.997v17.315v3.998     v21.314h64.611h4.663h64.61v-21.314v-3.998v-17.315v-3.997v-17.319v-3.996V86.96v-3.996V65.646v-3.997V40.334H114.464z      M49.187,44.33c6.475,0,51.936,0,60.614,0v17.318H49.187C49.187,57.043,49.187,48.936,49.187,44.33z M49.187,65.646h60.614     v17.318c-8.679,0-54.14,0-60.614,0C49.187,78.358,49.187,70.251,49.187,65.646z M49.187,86.96h60.614v17.318     c-8.679,0-54.14,0-60.614,0C49.187,99.673,49.187,91.565,49.187,86.96z M49.187,108.274h60.614v17.319H49.187     C49.187,120.987,49.187,112.88,49.187,108.274z M49.187,129.591h60.614v17.315H49.187     C49.187,142.301,49.187,134.195,49.187,129.591z M49.187,168.223c0-4.605,0-12.713,0-17.318h60.614v17.318     C101.123,168.223,55.662,168.223,49.187,168.223z M175.076,168.223c-6.473,0-51.934,0-60.612,0v-17.318h60.612     C175.076,155.51,175.076,163.617,175.076,168.223z M175.076,146.906h-60.612v-17.315h60.612     C175.076,134.195,175.076,142.301,175.076,146.906z M175.076,125.594h-60.612v-17.319h60.612     C175.076,112.88,175.076,120.987,175.076,125.594z M175.076,104.278c-6.473,0-51.934,0-60.612,0V86.96h60.612     C175.076,91.565,175.076,99.673,175.076,104.278z M175.076,82.964c-6.473,0-51.934,0-60.612,0V65.646h60.612     C175.076,70.251,175.076,78.358,175.076,82.964z M114.464,61.648V44.33c8.678,0,54.14,0,60.612,0c0,4.605,0,12.713,0,17.318     H114.464z"
       id="path825" />
    <g
       id="g826">
      <linearGradient
         id="XMLID_15_"
         gradientUnits="userSpaceOnUse"
         x1="94.6909"
         y1="139.8398"
         x2="169.7819"
         y2="139.8398">
        <stop
           offset="0"
           style="stop-color:#B0D9FF"
           id="stop828" />
        <stop
           offset="1"
           style="stop-color:#006DFF"
           id="stop829" />
        <a:midPointStop
           offset="0"
           style="stop-color:#B0D9FF"
           id="midPointStop830" />
        <a:midPointStop
           offset="0.5"
           style="stop-color:#B0D9FF"
           id="midPointStop831" />
        <a:midPointStop
           offset="1"
           style="stop-color:#006DFF"
           id="midPointStop832" />
      </linearGradient>
      <path
         fill="url(#XMLID_15_)"
         d="M150.568,153.674l26.42-30.906l-4.303-1.68c-9.076-3.547-19.41-5.421-29.885-5.421      c-5.213,0-18.977,3.221-18.977,3.221c-16.453,5.036-29.074,14.976-33.902,27.173l-1.463,3.695l51.293,9.281l1.977,4.977l3.418-4      l8.553,1.547L150.568,153.674z"
         id="path833" />
      <g
         opacity="0.2"
         id="g834">
        <path
           d="M175.047,126.381c0,0-24.84,29.695-26.383,31.541c-2.398-0.443-51.616-9.547-51.616-9.547       c-2.188-0.406-4.393,0.975-5.018,3.143l-0.078,0.27c-1.324,4.541-1.996,8.211-1.996,10.906v9.904       c0,23.746,27.107,43.068,60.426,43.068c33.32,0,60.428-19.322,60.428-43.068l-0.006-6.875c0-0.389-0.018-0.791-0.047-1.191       c0.006-0.053,0.031-0.098,0.031-0.152c0-0.002-0.004-1.031-0.004-1.031c0,0.002,0,0.004,0,0.006       c0,0.193-0.063,0.367-0.109,0.545c-0.002-0.025-0.012-0.051-0.016-0.076c0.043-0.176,0.121-0.314,0.131-0.527       c0,0,0.018-0.533,0.018-0.535c0-15.658-11.793-30.053-30.779-37.637C178.268,124.42,176.264,124.926,175.047,126.381        M209.406,165.354c-0.014,0.008-0.023,0.023-0.037,0.029c-0.012,0.006-0.027,0.006-0.039,0.01       C209.357,165.383,209.381,165.363,209.406,165.354z"
           id="path835" />
      </g>
      <g
         opacity="0.2"
         id="g836">
        <path
           d="M173.951,124.191c0,0-24.838,29.695-26.383,31.541c-2.398-0.445-51.615-9.547-51.615-9.547       c-2.188-0.406-4.393,0.975-5.018,3.143l-0.078,0.27c-1.324,4.539-1.996,8.211-1.996,10.904v9.904       c0,23.748,27.106,43.07,60.427,43.07c33.318,0,60.426-19.322,60.426-43.07l-0.004-6.873c-0.002-0.389-0.02-0.791-0.047-1.191       c0.004-0.053,0.029-0.098,0.029-0.152c0-0.002-0.004-1.031-0.004-1.031c0,0.002,0,0.004,0,0.006       c0,0.193-0.061,0.365-0.107,0.543c-0.004-0.023-0.012-0.049-0.018-0.074c0.045-0.176,0.123-0.314,0.133-0.527l0.016-0.535       c0-15.658-11.793-30.053-30.777-37.637C177.172,122.229,175.17,122.734,173.951,124.191 M208.311,163.164       c-0.014,0.008-0.021,0.021-0.035,0.029c-0.014,0.006-0.027,0.004-0.039,0.01C208.262,163.193,208.287,163.174,208.311,163.164z       "
           id="path837" />
      </g>
      <linearGradient
         id="XMLID_16_"
         gradientUnits="userSpaceOnUse"
         x1="155.6338"
         y1="165.0684"
         x2="155.6338"
         y2="121.8657">
        <stop
           offset="0"
           style="stop-color:#C77700"
           id="stop839" />
        <stop
           offset="1"
           style="stop-color:#E1AB1A"
           id="stop840" />
        <a:midPointStop
           offset="0"
           style="stop-color:#C77700"
           id="midPointStop841" />
        <a:midPointStop
           offset="0.5"
           style="stop-color:#C77700"
           id="midPointStop842" />
        <a:midPointStop
           offset="1"
           style="stop-color:#E1AB1A"
           id="midPointStop843" />
      </linearGradient>
      <path
         fill="url(#XMLID_16_)"
         d="M141.623,121.865v43.203l28.021-33.502c0-5.832,0-7.428,0-7.428      C164.451,124.139,151.791,122.932,141.623,121.865z"
         id="path844" />
      <linearGradient
         id="XMLID_17_"
         gradientUnits="userSpaceOnUse"
         x1="149.4766"
         y1="111.8062"
         x2="149.4766"
         y2="151.7332">
        <stop
           offset="0"
           style="stop-color:#FFBC50"
           id="stop846" />
        <stop
           offset="1"
           style="stop-color:#FFF030"
           id="stop847" />
        <a:midPointStop
           offset="0"
           style="stop-color:#FFBC50"
           id="midPointStop848" />
        <a:midPointStop
           offset="0.5"
           style="stop-color:#FFBC50"
           id="midPointStop849" />
        <a:midPointStop
           offset="1"
           style="stop-color:#FFF030"
           id="midPointStop850" />
      </linearGradient>
      <path
         fill="url(#XMLID_17_)"
         d="M141.623,118.952c-5.018,0-9.877,1.556-14.505,2.413l16.697,36.275l28.021-33.502      C161.398,120.846,151.836,118.952,141.623,118.952z"
         id="path851" />
      <linearGradient
         id="XMLID_18_"
         gradientUnits="userSpaceOnUse"
         x1="119.5957"
         y1="160.8633"
         x2="120.3693"
         y2="150.0318">
        <stop
           offset="0"
           style="stop-color:#0053BD"
           id="stop853" />
        <stop
           offset="1"
           style="stop-color:#006DFF"
           id="stop854" />
        <a:midPointStop
           offset="0"
           style="stop-color:#0053BD"
           id="midPointStop855" />
        <a:midPointStop
           offset="0.5"
           style="stop-color:#0053BD"
           id="midPointStop856" />
        <a:midPointStop
           offset="1"
           style="stop-color:#006DFF"
           id="midPointStop857" />
      </linearGradient>
      <path
         fill="url(#XMLID_18_)"
         d="M92.953,153.58l54.141,10.014v-7.428l-54.141-10.014      C92.953,146.152,92.953,147.475,92.953,153.58z"
         id="path858" />
      <linearGradient
         id="XMLID_19_"
         gradientUnits="userSpaceOnUse"
         x1="92.9526"
         y1="138.5752"
         x2="147.0938"
         y2="138.5752">
        <stop
           offset="0"
           style="stop-color:#B0D9FF"
           id="stop860" />
        <stop
           offset="1"
           style="stop-color:#006DFF"
           id="stop861" />
        <a:midPointStop
           offset="0"
           style="stop-color:#B0D9FF"
           id="midPointStop862" />
        <a:midPointStop
           offset="0.5"
           style="stop-color:#B0D9FF"
           id="midPointStop863" />
        <a:midPointStop
           offset="1"
           style="stop-color:#006DFF"
           id="midPointStop864" />
      </linearGradient>
      <path
         fill="url(#XMLID_19_)"
         d="M92.953,147.246l54.141,10.016l-14.508-37.373C113.294,123.447,98.109,133.93,92.953,147.246z"
         id="path865" />
      <path
         opacity="0.5"
         fill="#FFFFFF"
         a:adobe-blending-mode="overlay"
         d="M133.061,121.113l-0.475-1.225      c-19.292,3.559-34.477,14.041-39.633,27.357l1.458,0.27C99.807,134.74,114.47,124.703,133.061,121.113z"
         id="path866" />
      <linearGradient
         id="XMLID_20_"
         gradientUnits="userSpaceOnUse"
         x1="147.0986"
         y1="124.8359"
         x2="147.0986"
         y2="211.2782">
        <stop
           offset="0"
           style="stop-color:#009933"
           id="stop868" />
        <stop
           offset="1"
           style="stop-color:#006A00"
           id="stop869" />
        <a:midPointStop
           offset="0"
           style="stop-color:#009933"
           id="midPointStop870" />
        <a:midPointStop
           offset="0.5"
           style="stop-color:#009933"
           id="midPointStop871" />
        <a:midPointStop
           offset="1"
           style="stop-color:#006A00"
           id="midPointStop872" />
      </linearGradient>
      <path
         fill="url(#XMLID_20_)"
         d="M171.762,124.191c0,0-24.838,29.695-26.383,31.541c-2.398-0.445-51.615-9.547-51.615-9.547      c-2.188-0.406-4.393,0.975-5.019,3.143l-0.078,0.27c-1.323,4.539-1.996,8.211-1.996,10.904v9.904      c0,23.748,27.107,43.07,60.426,43.07c33.32,0,60.428-19.322,60.428-43.07l-0.004-6.873c-0.002-0.389-0.02-0.791-0.047-1.191      c0.004-0.053,0.029-0.098,0.029-0.152c0-0.002-0.004-1.031-0.004-1.031c0,0.002,0,0.004,0,0.006      c0,0.193-0.063,0.365-0.109,0.543c-0.002-0.023-0.012-0.049-0.016-0.074c0.045-0.176,0.123-0.314,0.133-0.527l0.016-0.535      c0-15.658-11.793-30.053-30.779-37.637C174.982,122.229,172.979,122.734,171.762,124.191 M206.121,163.164      c-0.014,0.008-0.021,0.021-0.037,0.029c-0.012,0.006-0.025,0.004-0.037,0.01C206.072,163.193,206.096,163.174,206.121,163.164z"
         id="path873" />
      <linearGradient
         id="XMLID_21_"
         gradientUnits="userSpaceOnUse"
         x1="91.0513"
         y1="184.5938"
         x2="203.1445"
         y2="184.5938">
        <stop
           offset="0"
           style="stop-color:#33CC33"
           id="stop875" />
        <stop
           offset="1"
           style="stop-color:#009933"
           id="stop876" />
        <a:midPointStop
           offset="0"
           style="stop-color:#33CC33"
           id="midPointStop877" />
        <a:midPointStop
           offset="0.5"
           style="stop-color:#33CC33"
           id="midPointStop878" />
        <a:midPointStop
           offset="1"
           style="stop-color:#009933"
           id="midPointStop879" />
      </linearGradient>
      <path
         fill="url(#XMLID_21_)"
         d="M203.121,160.092l-56.023,10.314l-56.046-9.904c0-1.957,0,5.662,0,9.904      c0,21.371,25.093,38.689,56.046,38.689c30.955,0,56.047-17.318,56.047-38.689C203.145,156.088,203.121,166.127,203.121,160.092z      "
         id="path880" />
      <linearGradient
         id="XMLID_22_"
         gradientUnits="userSpaceOnUse"
         x1="91.0513"
         y1="163.0977"
         x2="203.1445"
         y2="163.0977">
        <stop
           offset="0"
           style="stop-color:#0FFF00"
           id="stop882" />
        <stop
           offset="1"
           style="stop-color:#2CA900"
           id="stop883" />
        <a:midPointStop
           offset="0"
           style="stop-color:#0FFF00"
           id="midPointStop884" />
        <a:midPointStop
           offset="0.5"
           style="stop-color:#0FFF00"
           id="midPointStop885" />
        <a:midPointStop
           offset="1"
           style="stop-color:#2CA900"
           id="midPointStop886" />
      </linearGradient>
      <path
         fill="url(#XMLID_22_)"
         d="M175.119,127.002l-28.021,33.5l-54.14-10.012c0.279-0.721-1.906,5.77-1.906,10.012      c0,21.369,25.093,38.691,56.046,38.691c30.955,0,56.047-17.322,56.047-38.691C203.145,146.184,191.869,133.691,175.119,127.002z      "
         id="path887" />
      <path
         opacity="0.6"
         fill="#FFFFFF"
         d="M191.594,139.105c5.912,6.127,9.361,13.482,9.361,21.396      c0,21.369-25.092,38.691-56.047,38.691c-18.855,0-35.523-6.436-45.681-16.289c10.029,10.473,27.229,17.383,46.777,17.383      c30.953,0,56.047-17.32,56.047-38.689C202.051,153.205,198.172,145.443,191.594,139.105z"
         id="path888" />
    </g>
    <rect
       id="_x3C_Slice_x3E_"
       fill="none"
       width="256"
       height="256" />
  </g>
</svg>
